HIERARCHY
ROOT Hips
{
	OFFSET 0.000000 0.000000 0.000000
	CHANNELS 6 Xposition Yposition Zposition Zrotation Yrotation Xrotation 
	JOINT LowerBack
	{
		OFFSET 0.000000 0.000000 0.000000
		CHANNELS 3 Zrotation Yrotation Xrotation
		JOINT Spine
		{
			OFFSET 0.028270 2.035590 -0.193380
			CHANNELS 3 Zrotation Yrotation Xrotation
			JOINT Spine1
			{
				OFFSET 0.056720 2.048850 -0.042750
				CHANNELS 3 Zrotation Yrotation Xrotation
				JOINT Neck
				{
					OFFSET 0.000000 0.000000 0.000000
					CHANNELS 3 Zrotation Yrotation Xrotation
					JOINT Neck1
					{
						OFFSET -0.054170 1.746240 0.172020
						CHANNELS 3 Zrotation Yrotation Xrotation
						JOINT Head
						{
							OFFSET 0.104070 1.761360 -0.123970
							CHANNELS 3 Zrotation Yrotation Xrotation
							End Site
							{
								OFFSET 0.000000 0.000000 0.000000
							}
						}
					}
				}
				JOINT LeftShoulder
				{
					OFFSET 0.000000 0.000000 0.000000
					CHANNELS 3 Zrotation Yrotation Xrotation
					JOINT LeftArm
					{
						OFFSET 3.362410 1.200890 -0.311210
						CHANNELS 3 Zrotation Yrotation Xrotation
						JOINT LeftForeArm
						{
							OFFSET 4.983000 -0.000000 -0.000000
							CHANNELS 3 Zrotation Yrotation Xrotation
							JOINT LeftHand
							{
								OFFSET 3.483560 -0.000000 -0.000000
								CHANNELS 3 Zrotation Yrotation Xrotation
								JOINT LeftFingerBase
								{
									OFFSET 0.000000 0.000000 0.000000
									CHANNELS 3 Zrotation Yrotation Xrotation
									JOINT LeftHandIndex1
									{
										OFFSET 0.715260 -0.000000 -0.000000
										CHANNELS 3 Zrotation Yrotation Xrotation
										End Site
										{
											OFFSET 0.000000 0.000000 0.000000
										}
									}
								}
								JOINT LThumb
								{
									OFFSET 0.000000 0.000000 0.000000
									CHANNELS 3 Zrotation Yrotation Xrotation
									End Site
									{
										OFFSET 0.000000 0.000000 0.000000
									}
								}
							}
						}
					}
				}
				JOINT RightShoulder
				{
					OFFSET 0.000000 0.000000 0.000000
					CHANNELS 3 Zrotation Yrotation Xrotation
					JOINT RightArm
					{
						OFFSET -3.136600 1.374050 -0.404650
						CHANNELS 3 Zrotation Yrotation Xrotation
						JOINT RightForeArm
						{
							OFFSET -5.241900 -0.000000 -0.000000
							CHANNELS 3 Zrotation Yrotation Xrotation
							JOINT RightHand
							{
								OFFSET -3.444170 -0.000000 -0.000000
								CHANNELS 3 Zrotation Yrotation Xrotation
								JOINT RightFingerBase
								{
									OFFSET 0.000000 0.000000 0.000000
									CHANNELS 3 Zrotation Yrotation Xrotation
									JOINT RightHandIndex1
									{
										OFFSET -0.622530 -0.000000 -0.000000
										CHANNELS 3 Zrotation Yrotation Xrotation
										End Site
										{
											OFFSET 0.000000 0.000000 0.000000
										}
									}
								}
								JOINT RThumb
								{
									OFFSET 0.000000 0.000000 0.000000
									CHANNELS 3 Zrotation Yrotation Xrotation
									End Site
									{
										OFFSET 0.000000 0.000000 0.000000
									}
								}
							}
						}
					}
				}
			}
		}
	}
}
}
MOTION
Frames: 7
Frame Time: 0.008333
2.915998 16.754676 5.009681 7.083702 7.264966 29.319047 -11.130205 -0.568434 -10.601149 -2.928350 0.267645 -4.698564 -5.034447 0.135871 1.129193 6.776661 -6.271221 -7.609548 -2.339961 -0.179230 -0.037721 0.000000 0.000000 0.000000 -0.598007 13.131008 1.085303 -45.854745 17.871991 21.948369 -179.521613 -81.205204 179.994656 3.372326 -0.584602 -0.021393 -0.128870 0.188155 -0.000000 0.000000 0.000000 0.000000 0.000000 0.000000 0.000000 7.318698 0.467375 3.317958 68.178280 36.385625 61.210375 179.519280 87.354820 -179.926995 13.689431 3.746574 0.498348 -0.164017 -0.356466 -0.000000 0.000000 0.000000 0.000000 0.000000 0.000000 0.000000 
2.986234 16.662249 5.148002 7.378198 6.728379 29.293413 -11.305250 -0.734882 -10.610204 -2.989612 0.121787 -4.695551 -5.198406 -0.002411 1.067226 7.131904 -6.501855 -7.664280 -2.408567 -0.183721 -0.056418 0.000000 0.000000 0.000000 -0.491288 12.960094 1.157189 -45.229239 17.680113 22.553770 -179.522363 -81.222118 179.994089 3.531225 -0.328588 -0.014049 -0.133579 0.181355 -0.000000 0.000000 0.000000 0.000000 0.000000 0.000000 0.000000 7.957921 0.252675 3.220185 67.950076 36.128740 59.552460 179.477743 87.043657 -179.925689 12.992500 4.165755 0.524111 -0.149687 -0.382530 -0.000000 0.000000 0.000000 0.000000 0.000000 0.000000 0.000000 
3.056759 16.571116 5.284544 7.715646 6.172470 29.168051 -11.463618 -0.892095 -10.516587 -3.045261 -0.017201 -4.674101 -5.363196 -0.132714 0.999008 7.444845 -6.717769 -7.715388 -2.474014 -0.187843 -0.074881 0.000000 0.000000 0.000000 -0.461623 12.885141 1.243979 -44.637734 17.202444 23.133412 -179.527036 -81.378102 179.993425 3.728212 -0.089378 -0.006588 -0.140201 0.175447 -0.000000 0.000000 0.000000 0.000000 0.000000 0.000000 0.000000 8.517130 0.051261 3.060622 67.840680 35.737990 57.766432 179.461737 86.879729 -179.924358 12.137398 4.733386 0.553512 -0.131849 -0.412106 0.000000 0.000000 0.000000 0.000000 0.000000 0.000000 0.000000 
3.126295 16.484110 5.420084 8.075472 5.571317 28.945553 -11.603133 -1.029627 -10.333206 -3.096105 -0.139235 -4.637525 -5.530550 -0.244964 0.925309 7.714761 -6.917239 -7.761583 -2.535842 -0.191596 -0.092589 0.000000 0.000000 0.000000 -0.510293 12.902584 1.342963 -44.078271 16.438019 23.666044 -179.535756 -81.673960 179.992721 3.948894 0.107295 0.000090 -0.148428 0.170905 0.000000 0.000000 0.000000 0.000000 0.000000 0.000000 0.000000 8.993103 -0.132086 2.843842 67.872018 35.200875 55.874275 179.471406 86.870086 -179.924356 11.181503 5.409293 0.579636 -0.112167 -0.443464 -0.000000 0.000000 0.000000 0.000000 0.000000 0.000000 0.000000 
3.193310 16.404168 5.555570 8.439647 4.912930 28.647947 -11.725593 -1.143145 -10.087490 -3.143588 -0.239528 -4.590512 -5.702222 -0.334427 0.851044 7.948658 -7.099634 -7.804024 -2.594160 -0.194994 -0.109698 0.000000 0.000000 0.000000 -0.628942 13.012361 1.450963 -43.551099 15.380855 24.137381 -179.548951 -82.112253 179.992016 4.182116 0.245970 0.005481 -0.158014 0.168066 0.000000 0.000000 0.000000 0.000000 0.000000 0.000000 0.000000 9.395540 -0.297479 2.577090 68.052916 34.514430 53.896869 179.505624 87.008941 -179.925436 10.172587 6.145229 0.595969 -0.092131 -0.474755 -0.000000 0.000000 0.000000 0.000000 0.000000 0.000000 0.000000 
3.256415 16.333990 5.691845 8.791900 4.195399 28.306952 -11.831996 -1.232692 -9.813418 -3.188622 -0.317553 -4.538556 -5.879227 -0.400668 0.781682 8.156720 -7.264736 -7.844038 -2.649272 -0.198080 -0.126332 0.000000 0.000000 0.000000 -0.807685 13.209205 1.563804 -43.056221 14.039161 24.536253 -179.566896 -82.685762 179.991331 4.420597 0.322273 0.008784 -0.168740 0.167058 0.000000 0.000000 0.000000 0.000000 0.000000 0.000000 0.000000 9.739922 -0.447289 2.270314 68.378092 33.686251 51.853867 179.560857 87.279812 -179.927497 9.140321 6.889918 0.597600 -0.072730 -0.504267 0.000000 0.000000 0.000000 0.000000 0.000000 0.000000 0.000000 
3.314543 16.275769 5.829537 9.118066 3.421864 27.952784 -11.919849 -1.300444 -9.541510 -3.230976 -0.375319 -4.487055 -6.061273 -0.445849 0.719579 8.348194 -7.411747 -7.880448 -2.701353 -0.200927 -0.141840 0.000000 0.000000 0.000000 -1.039414 13.472683 1.676490 -42.591854 12.451817 24.849865 -179.589422 -83.370994 179.990677 4.659417 0.341393 0.009998 -0.180323 0.167774 0.000000 0.000000 0.000000 0.000000 0.000000 0.000000 0.000000 10.040603 -0.583316 1.936035 68.828642 32.731709 49.763340 179.631284 87.657076 -179.931174 8.092712 7.595013 0.581025 -0.054318 -0.530665 0.000000 0.000000 0.000000 0.000000 0.000000 0.000000 0.000000 
